<svg xmlns="http://www.w3.org/2000/svg" viewBox="0 0 100 100" width="100" height="100">
  <defs>
    <linearGradient id="logoGradient" x1="0%" y1="0%" x2="100%" y2="100%">
      <stop offset="0%" style="stop-color:#2F6F6D;stop-opacity:1" />
      <stop offset="100%" style="stop-color:#1a4a48;stop-opacity:1" />
    </linearGradient>
  </defs>
  <!-- Background circle -->
  <circle cx="50" cy="50" r="45" fill="url(#logoGradient)"/>
  <!-- Heart shape for care -->
  <path d="M50 75 C35 60 25 50 25 40 C25 30 33 22 43 22 C48 22 50 25 50 25 C50 25 52 22 57 22 C67 22 75 30 75 40 C75 50 65 60 50 75 Z" fill="#F1C27D"/>
  <!-- Hands supporting -->
  <path d="M30 65 Q35 58 45 62 Q50 64 50 70 Q50 76 45 78 Q35 82 30 75 Z" fill="white" opacity="0.9"/>
  <path d="M70 65 Q65 58 55 62 Q50 64 50 70 Q50 76 55 78 Q65 82 70 75 Z" fill="white" opacity="0.9"/>
</svg>
