<svg xmlns="http://www.w3.org/2000/svg" viewBox="0 0 32 32">
  <defs>
    <linearGradient id="grad" x1="0%" y1="0%" x2="100%" y2="100%">
      <stop offset="0%" style="stop-color:#06b6d4;stop-opacity:1" />
      <stop offset="100%" style="stop-color:#0891b2;stop-opacity:1" />
    </linearGradient>
  </defs>
  <rect width="32" height="32" rx="6" fill="url(#grad)"/>
  <path d="M16 6c-2.5 0-4.5 2-4.5 4.5 0 1.5.7 2.8 1.8 3.7-3.3 1.2-5.8 4.3-5.8 7.8 0 1.5 1.2 2.5 2.5 2.5h12c1.3 0 2.5-1 2.5-2.5 0-3.5-2.5-6.6-5.8-7.8 1.1-.9 1.8-2.2 1.8-3.7C20.5 8 18.5 6 16 6z" fill="white"/>
  <circle cx="16" cy="11.5" r="2" fill="url(#grad)"/>
</svg>
