<svg xmlns="http://www.w3.org/2000/svg" viewBox="0 0 120 120">
  <defs>
    <linearGradient id="grad" x1="0%" y1="0%" x2="100%" y2="100%">
      <stop offset="0%" style="stop-color:#2F6F6D;stop-opacity:1" />
      <stop offset="100%" style="stop-color:#1a4f4d;stop-opacity:1" />
    </linearGradient>
  </defs>
  <!-- Background circle -->
  <circle cx="60" cy="60" r="58" fill="url(#grad)" />
  <!-- Heart shape -->
  <path d="M60 95 C35 75 20 55 20 40 C20 25 32 15 45 15 C52 15 58 19 60 25 C62 19 68 15 75 15 C88 15 100 25 100 40 C100 55 85 75 60 95Z" fill="white" opacity="0.95"/>
  <!-- Hands caring -->
  <path d="M45 50 C45 45 50 40 55 42 L60 45 L65 42 C70 40 75 45 75 50 C75 55 70 58 65 58 L60 55 L55 58 C50 58 45 55 45 50Z" fill="#2F6F6D" opacity="0.6"/>
</svg>
